%TF.GenerationSoftware,KiCad,Pcbnew,8.0.4*%
%TF.CreationDate,2024-08-12T16:37:48-04:00*%
%TF.ProjectId,suzyq,73757a79-712e-46b6-9963-61645f706362,rev?*%
%TF.SameCoordinates,Original*%
%TF.FileFunction,Paste,Top*%
%TF.FilePolarity,Positive*%
%FSLAX46Y46*%
G04 Gerber Fmt 4.6, Leading zero omitted, Abs format (unit mm)*
G04 Created by KiCad (PCBNEW 8.0.4) date 2024-08-12 16:37:48*
%MOMM*%
%LPD*%
G01*
G04 APERTURE LIST*
G04 Aperture macros list*
%AMRoundRect*
0 Rectangle with rounded corners*
0 $1 Rounding radius*
0 $2 $3 $4 $5 $6 $7 $8 $9 X,Y pos of 4 corners*
0 Add a 4 corners polygon primitive as box body*
4,1,4,$2,$3,$4,$5,$6,$7,$8,$9,$2,$3,0*
0 Add four circle primitives for the rounded corners*
1,1,$1+$1,$2,$3*
1,1,$1+$1,$4,$5*
1,1,$1+$1,$6,$7*
1,1,$1+$1,$8,$9*
0 Add four rect primitives between the rounded corners*
20,1,$1+$1,$2,$3,$4,$5,0*
20,1,$1+$1,$4,$5,$6,$7,0*
20,1,$1+$1,$6,$7,$8,$9,0*
20,1,$1+$1,$8,$9,$2,$3,0*%
G04 Aperture macros list end*
%ADD10C,0.000000*%
%ADD11RoundRect,0.135000X0.135000X0.185000X-0.135000X0.185000X-0.135000X-0.185000X0.135000X-0.185000X0*%
%ADD12R,0.500000X1.200000*%
%ADD13R,0.250000X1.200000*%
G04 APERTURE END LIST*
D10*
%TO.C,U1*%
G36*
X56049000Y-34154500D02*
G01*
X55549000Y-34154500D01*
X55549000Y-32954500D01*
X56049000Y-32954500D01*
X56049000Y-34154500D01*
G37*
G36*
X56849000Y-34154500D02*
G01*
X56349000Y-34154500D01*
X56349000Y-32954500D01*
X56849000Y-32954500D01*
X56849000Y-34154500D01*
G37*
G36*
X57374000Y-34154500D02*
G01*
X57124000Y-34154500D01*
X57124000Y-32954500D01*
X57374000Y-32954500D01*
X57374000Y-34154500D01*
G37*
G36*
X57874000Y-34154500D02*
G01*
X57624000Y-34154500D01*
X57624000Y-32954500D01*
X57874000Y-32954500D01*
X57874000Y-34154500D01*
G37*
G36*
X58374000Y-34154500D02*
G01*
X58124000Y-34154500D01*
X58124000Y-32954500D01*
X58374000Y-32954500D01*
X58374000Y-34154500D01*
G37*
G36*
X58874000Y-34154500D02*
G01*
X58624000Y-34154500D01*
X58624000Y-32954500D01*
X58874000Y-32954500D01*
X58874000Y-34154500D01*
G37*
G36*
X59374000Y-34154500D02*
G01*
X59124000Y-34154500D01*
X59124000Y-32954500D01*
X59374000Y-32954500D01*
X59374000Y-34154500D01*
G37*
G36*
X59874000Y-34154500D02*
G01*
X59624000Y-34154500D01*
X59624000Y-32954500D01*
X59874000Y-32954500D01*
X59874000Y-34154500D01*
G37*
G36*
X60374000Y-34154500D02*
G01*
X60124000Y-34154500D01*
X60124000Y-32954500D01*
X60374000Y-32954500D01*
X60374000Y-34154500D01*
G37*
G36*
X60874000Y-34154500D02*
G01*
X60624000Y-34154500D01*
X60624000Y-32954500D01*
X60874000Y-32954500D01*
X60874000Y-34154500D01*
G37*
G36*
X61649000Y-34154500D02*
G01*
X61149000Y-34154500D01*
X61149000Y-32954500D01*
X61649000Y-32954500D01*
X61649000Y-34154500D01*
G37*
G36*
X62449000Y-34154500D02*
G01*
X61949000Y-34154500D01*
X61949000Y-32954500D01*
X62449000Y-32954500D01*
X62449000Y-34154500D01*
G37*
G36*
X54709000Y-28305500D02*
G01*
X54728500Y-28307500D01*
X54748500Y-28310500D01*
X54768000Y-28314500D01*
X54787500Y-28319500D01*
X54806500Y-28325500D01*
X54825000Y-28332000D01*
X54843500Y-28340000D01*
X54861500Y-28348500D01*
X54879000Y-28358000D01*
X54896000Y-28368500D01*
X54912500Y-28379500D01*
X54928500Y-28392000D01*
X54943500Y-28404500D01*
X54958500Y-28418000D01*
X54972000Y-28432500D01*
X54985500Y-28447500D01*
X54998000Y-28463000D01*
X55009500Y-28479000D01*
X55020500Y-28496000D01*
X55030000Y-28513000D01*
X55039500Y-28531000D01*
X55047500Y-28549000D01*
X55055000Y-28567500D01*
X55061000Y-28586500D01*
X55066500Y-28606000D01*
X55071000Y-28625500D01*
X55074500Y-28645000D01*
X55077000Y-28664500D01*
X55078500Y-28684500D01*
X55079000Y-28704500D01*
X55079000Y-29704500D01*
X55078500Y-29724500D01*
X55077000Y-29744500D01*
X55074500Y-29764000D01*
X55071000Y-29783500D01*
X55066500Y-29803000D01*
X55061000Y-29822500D01*
X55055000Y-29841500D01*
X55047500Y-29860000D01*
X55039500Y-29878000D01*
X55030000Y-29896000D01*
X55020500Y-29913000D01*
X55009500Y-29930000D01*
X54998000Y-29946000D01*
X54985500Y-29961500D01*
X54972000Y-29976500D01*
X54958500Y-29991000D01*
X54943500Y-30004500D01*
X54928500Y-30017000D01*
X54912500Y-30029500D01*
X54896000Y-30040500D01*
X54879000Y-30051000D01*
X54861500Y-30060500D01*
X54843500Y-30069000D01*
X54825000Y-30077000D01*
X54806500Y-30083500D01*
X54787500Y-30089500D01*
X54768000Y-30094500D01*
X54748500Y-30098500D01*
X54728500Y-30101500D01*
X54709000Y-30103500D01*
X54689000Y-30104500D01*
X54669000Y-30104500D01*
X54649000Y-30103500D01*
X54629000Y-30101500D01*
X54609500Y-30098500D01*
X54590000Y-30094500D01*
X54570500Y-30089500D01*
X54551500Y-30083500D01*
X54533000Y-30077000D01*
X54514500Y-30069000D01*
X54496500Y-30060500D01*
X54479000Y-30051000D01*
X54462000Y-30040500D01*
X54445500Y-30029500D01*
X54429500Y-30017000D01*
X54414500Y-30004500D01*
X54399500Y-29991000D01*
X54386000Y-29976500D01*
X54372500Y-29961500D01*
X54360000Y-29946000D01*
X54348500Y-29930000D01*
X54337500Y-29913000D01*
X54327500Y-29896000D01*
X54318500Y-29878000D01*
X54310500Y-29860000D01*
X54303000Y-29841500D01*
X54296500Y-29822500D01*
X54291500Y-29803000D01*
X54287000Y-29783500D01*
X54283500Y-29764000D01*
X54281000Y-29744500D01*
X54279500Y-29724500D01*
X54279000Y-29704500D01*
X54279000Y-28704500D01*
X54279500Y-28684500D01*
X54281000Y-28664500D01*
X54283500Y-28645000D01*
X54287000Y-28625500D01*
X54291500Y-28606000D01*
X54296500Y-28586500D01*
X54303000Y-28567500D01*
X54310500Y-28549000D01*
X54318500Y-28531000D01*
X54327500Y-28513000D01*
X54337500Y-28496000D01*
X54348500Y-28479000D01*
X54360000Y-28463000D01*
X54372500Y-28447500D01*
X54386000Y-28432500D01*
X54399500Y-28418000D01*
X54414500Y-28404500D01*
X54429500Y-28392000D01*
X54445500Y-28379500D01*
X54462000Y-28368500D01*
X54479000Y-28358000D01*
X54496500Y-28348500D01*
X54514500Y-28340000D01*
X54533000Y-28332000D01*
X54551500Y-28325500D01*
X54570500Y-28319500D01*
X54590000Y-28314500D01*
X54609500Y-28310500D01*
X54629000Y-28307500D01*
X54649000Y-28305500D01*
X54669000Y-28304500D01*
X54689000Y-28304500D01*
X54709000Y-28305500D01*
G37*
G36*
X54709000Y-32505500D02*
G01*
X54728500Y-32507500D01*
X54748500Y-32510500D01*
X54768000Y-32514500D01*
X54787500Y-32519500D01*
X54806500Y-32525500D01*
X54825000Y-32532000D01*
X54843500Y-32540000D01*
X54861500Y-32548500D01*
X54879000Y-32558000D01*
X54896000Y-32568500D01*
X54912500Y-32579500D01*
X54928500Y-32592000D01*
X54943500Y-32604500D01*
X54958500Y-32618000D01*
X54972000Y-32632500D01*
X54985500Y-32647500D01*
X54998000Y-32663000D01*
X55009500Y-32679000D01*
X55020500Y-32696000D01*
X55030000Y-32713000D01*
X55039500Y-32731000D01*
X55047500Y-32749000D01*
X55055000Y-32767500D01*
X55061000Y-32786500D01*
X55066500Y-32806000D01*
X55071000Y-32825000D01*
X55074500Y-32845000D01*
X55077000Y-32864500D01*
X55078500Y-32884500D01*
X55079000Y-32904500D01*
X55079000Y-33504500D01*
X55078500Y-33524500D01*
X55077000Y-33544500D01*
X55074500Y-33564000D01*
X55071000Y-33583500D01*
X55066500Y-33603000D01*
X55061000Y-33622500D01*
X55055000Y-33641500D01*
X55047500Y-33660000D01*
X55039500Y-33678000D01*
X55030000Y-33696000D01*
X55020500Y-33713000D01*
X55009500Y-33730000D01*
X54998000Y-33746000D01*
X54985500Y-33761500D01*
X54972000Y-33776500D01*
X54958500Y-33791000D01*
X54943500Y-33804500D01*
X54928500Y-33817000D01*
X54912500Y-33829500D01*
X54896000Y-33840500D01*
X54879000Y-33851000D01*
X54861500Y-33860500D01*
X54843500Y-33869000D01*
X54825000Y-33877000D01*
X54806500Y-33883500D01*
X54787500Y-33889500D01*
X54768000Y-33894500D01*
X54748500Y-33898500D01*
X54728500Y-33901500D01*
X54709000Y-33903500D01*
X54689000Y-33904500D01*
X54669000Y-33904500D01*
X54649000Y-33903500D01*
X54629000Y-33901500D01*
X54609500Y-33898500D01*
X54590000Y-33894500D01*
X54570500Y-33889500D01*
X54551500Y-33883500D01*
X54533000Y-33877000D01*
X54514500Y-33869000D01*
X54496500Y-33860500D01*
X54479000Y-33851000D01*
X54462000Y-33840500D01*
X54445500Y-33829500D01*
X54429500Y-33817000D01*
X54414500Y-33804500D01*
X54399500Y-33791000D01*
X54386000Y-33776500D01*
X54372500Y-33761500D01*
X54360000Y-33746000D01*
X54348500Y-33730000D01*
X54337500Y-33713000D01*
X54327500Y-33696000D01*
X54318500Y-33678000D01*
X54310500Y-33660000D01*
X54303000Y-33641500D01*
X54296500Y-33622500D01*
X54291500Y-33603000D01*
X54287000Y-33583500D01*
X54283500Y-33564000D01*
X54281000Y-33544500D01*
X54279500Y-33524500D01*
X54279000Y-33504500D01*
X54279000Y-32904500D01*
X54279500Y-32884500D01*
X54281000Y-32864500D01*
X54283500Y-32845000D01*
X54287000Y-32825000D01*
X54291500Y-32806000D01*
X54296500Y-32786500D01*
X54303000Y-32767500D01*
X54310500Y-32749000D01*
X54318500Y-32731000D01*
X54327500Y-32713000D01*
X54337500Y-32696000D01*
X54348500Y-32679000D01*
X54360000Y-32663000D01*
X54372500Y-32647500D01*
X54386000Y-32632500D01*
X54399500Y-32618000D01*
X54414500Y-32604500D01*
X54429500Y-32592000D01*
X54445500Y-32579500D01*
X54462000Y-32568500D01*
X54479000Y-32558000D01*
X54496500Y-32548500D01*
X54514500Y-32540000D01*
X54533000Y-32532000D01*
X54551500Y-32525500D01*
X54570500Y-32519500D01*
X54590000Y-32514500D01*
X54609500Y-32510500D01*
X54629000Y-32507500D01*
X54649000Y-32505500D01*
X54669000Y-32504500D01*
X54689000Y-32504500D01*
X54709000Y-32505500D01*
G37*
G36*
X63349000Y-32505500D02*
G01*
X63369000Y-32507500D01*
X63388500Y-32510500D01*
X63408000Y-32514500D01*
X63427500Y-32519500D01*
X63446500Y-32525500D01*
X63465000Y-32532000D01*
X63483500Y-32540000D01*
X63501500Y-32548500D01*
X63519000Y-32558000D01*
X63536000Y-32568500D01*
X63552500Y-32579500D01*
X63568500Y-32592000D01*
X63583500Y-32604500D01*
X63598500Y-32618000D01*
X63612000Y-32632500D01*
X63625500Y-32647500D01*
X63638000Y-32663000D01*
X63649500Y-32679000D01*
X63660500Y-32696000D01*
X63670500Y-32713000D01*
X63679500Y-32731000D01*
X63687500Y-32749000D01*
X63695000Y-32767500D01*
X63701500Y-32786500D01*
X63706500Y-32806000D01*
X63711000Y-32825000D01*
X63714500Y-32845000D01*
X63717000Y-32864500D01*
X63718500Y-32884500D01*
X63719000Y-32904500D01*
X63719000Y-33504500D01*
X63718500Y-33524500D01*
X63717000Y-33544500D01*
X63714500Y-33564000D01*
X63711000Y-33583500D01*
X63706500Y-33603000D01*
X63701500Y-33622500D01*
X63695000Y-33641500D01*
X63687500Y-33660000D01*
X63679500Y-33678000D01*
X63670500Y-33696000D01*
X63660500Y-33713000D01*
X63649500Y-33730000D01*
X63638000Y-33746000D01*
X63625500Y-33761500D01*
X63612000Y-33776500D01*
X63598500Y-33791000D01*
X63583500Y-33804500D01*
X63568500Y-33817000D01*
X63552500Y-33829500D01*
X63536000Y-33840500D01*
X63519000Y-33851000D01*
X63501500Y-33860500D01*
X63483500Y-33869000D01*
X63465000Y-33877000D01*
X63446500Y-33883500D01*
X63427500Y-33889500D01*
X63408000Y-33894500D01*
X63388500Y-33898500D01*
X63369000Y-33901500D01*
X63349000Y-33903500D01*
X63329000Y-33904500D01*
X63309000Y-33904500D01*
X63289000Y-33903500D01*
X63269500Y-33901500D01*
X63249500Y-33898500D01*
X63230000Y-33894500D01*
X63210500Y-33889500D01*
X63191500Y-33883500D01*
X63173000Y-33877000D01*
X63154500Y-33869000D01*
X63136500Y-33860500D01*
X63119000Y-33851000D01*
X63102000Y-33840500D01*
X63085500Y-33829500D01*
X63069500Y-33817000D01*
X63054500Y-33804500D01*
X63039500Y-33791000D01*
X63026000Y-33776500D01*
X63012500Y-33761500D01*
X63000000Y-33746000D01*
X62988500Y-33730000D01*
X62977500Y-33713000D01*
X62968000Y-33696000D01*
X62958500Y-33678000D01*
X62950500Y-33660000D01*
X62943000Y-33641500D01*
X62937000Y-33622500D01*
X62931500Y-33603000D01*
X62927000Y-33583500D01*
X62923500Y-33564000D01*
X62921000Y-33544500D01*
X62919500Y-33524500D01*
X62919000Y-33504500D01*
X62919000Y-32904500D01*
X62919500Y-32884500D01*
X62921000Y-32864500D01*
X62923500Y-32845000D01*
X62927000Y-32825000D01*
X62931500Y-32806000D01*
X62937000Y-32786500D01*
X62943000Y-32767500D01*
X62950500Y-32749000D01*
X62958500Y-32731000D01*
X62968000Y-32713000D01*
X62977500Y-32696000D01*
X62988500Y-32679000D01*
X63000000Y-32663000D01*
X63012500Y-32647500D01*
X63026000Y-32632500D01*
X63039500Y-32618000D01*
X63054500Y-32604500D01*
X63069500Y-32592000D01*
X63085500Y-32579500D01*
X63102000Y-32568500D01*
X63119000Y-32558000D01*
X63136500Y-32548500D01*
X63154500Y-32540000D01*
X63173000Y-32532000D01*
X63191500Y-32525500D01*
X63210500Y-32519500D01*
X63230000Y-32514500D01*
X63249500Y-32510500D01*
X63269500Y-32507500D01*
X63289000Y-32505500D01*
X63309000Y-32504500D01*
X63329000Y-32504500D01*
X63349000Y-32505500D01*
G37*
G36*
X63349000Y-28305500D02*
G01*
X63369000Y-28307500D01*
X63388500Y-28310500D01*
X63408000Y-28314500D01*
X63427500Y-28319500D01*
X63446500Y-28325500D01*
X63465000Y-28332000D01*
X63483500Y-28340000D01*
X63501500Y-28348500D01*
X63519000Y-28358000D01*
X63536000Y-28368500D01*
X63552500Y-28379500D01*
X63568500Y-28392000D01*
X63583500Y-28404500D01*
X63598500Y-28418000D01*
X63612000Y-28432500D01*
X63625500Y-28447500D01*
X63638000Y-28463000D01*
X63649500Y-28479000D01*
X63660500Y-28496000D01*
X63670500Y-28513000D01*
X63679500Y-28531000D01*
X63687500Y-28549000D01*
X63695000Y-28567500D01*
X63701500Y-28586500D01*
X63706500Y-28606000D01*
X63711000Y-28625500D01*
X63714500Y-28645000D01*
X63717000Y-28664500D01*
X63718500Y-28684500D01*
X63719000Y-28704500D01*
X63719000Y-29704500D01*
X63718500Y-29724500D01*
X63717000Y-29744500D01*
X63714500Y-29764000D01*
X63711000Y-29783500D01*
X63706500Y-29803000D01*
X63701500Y-29822500D01*
X63695000Y-29841500D01*
X63687500Y-29860000D01*
X63679500Y-29878000D01*
X63670500Y-29896000D01*
X63660500Y-29913000D01*
X63649500Y-29930000D01*
X63638000Y-29946000D01*
X63625500Y-29961500D01*
X63612000Y-29976500D01*
X63598500Y-29991000D01*
X63583500Y-30004500D01*
X63568500Y-30017000D01*
X63552500Y-30029500D01*
X63536000Y-30040500D01*
X63519000Y-30051000D01*
X63501500Y-30060500D01*
X63483500Y-30069000D01*
X63465000Y-30077000D01*
X63446500Y-30083500D01*
X63427500Y-30089500D01*
X63408000Y-30094500D01*
X63388500Y-30098500D01*
X63369000Y-30101500D01*
X63349000Y-30103500D01*
X63329000Y-30104500D01*
X63309000Y-30104500D01*
X63289000Y-30103500D01*
X63269500Y-30101500D01*
X63249500Y-30098500D01*
X63230000Y-30094500D01*
X63210500Y-30089500D01*
X63191500Y-30083500D01*
X63173000Y-30077000D01*
X63154500Y-30069000D01*
X63136500Y-30060500D01*
X63119000Y-30051000D01*
X63102000Y-30040500D01*
X63085500Y-30029500D01*
X63069500Y-30017000D01*
X63054500Y-30004500D01*
X63039500Y-29991000D01*
X63026000Y-29976500D01*
X63012500Y-29961500D01*
X63000000Y-29946000D01*
X62988500Y-29930000D01*
X62977500Y-29913000D01*
X62968000Y-29896000D01*
X62958500Y-29878000D01*
X62950500Y-29860000D01*
X62943000Y-29841500D01*
X62937000Y-29822500D01*
X62931500Y-29803000D01*
X62927000Y-29783500D01*
X62923500Y-29764000D01*
X62921000Y-29744500D01*
X62919500Y-29724500D01*
X62919000Y-29704500D01*
X62919000Y-28704500D01*
X62919500Y-28684500D01*
X62921000Y-28664500D01*
X62923500Y-28645000D01*
X62927000Y-28625500D01*
X62931500Y-28606000D01*
X62937000Y-28586500D01*
X62943000Y-28567500D01*
X62950500Y-28549000D01*
X62958500Y-28531000D01*
X62968000Y-28513000D01*
X62977500Y-28496000D01*
X62988500Y-28479000D01*
X63000000Y-28463000D01*
X63012500Y-28447500D01*
X63026000Y-28432500D01*
X63039500Y-28418000D01*
X63054500Y-28404500D01*
X63069500Y-28392000D01*
X63085500Y-28379500D01*
X63102000Y-28368500D01*
X63119000Y-28358000D01*
X63136500Y-28348500D01*
X63154500Y-28340000D01*
X63173000Y-28332000D01*
X63191500Y-28325500D01*
X63210500Y-28319500D01*
X63230000Y-28314500D01*
X63249500Y-28310500D01*
X63269500Y-28307500D01*
X63289000Y-28305500D01*
X63309000Y-28304500D01*
X63329000Y-28304500D01*
X63349000Y-28305500D01*
G37*
%TD*%
D11*
%TO.C,R2*%
X56480000Y-36000000D03*
X57500000Y-36000000D03*
%TD*%
D12*
%TO.C,U1*%
X62199000Y-33554500D03*
X61399000Y-33554500D03*
D13*
X60749000Y-33554500D03*
X60249000Y-33554500D03*
X59749000Y-33554500D03*
X59249000Y-33554500D03*
X58749000Y-33554500D03*
X58249000Y-33554500D03*
X57749000Y-33554500D03*
X57249000Y-33554500D03*
D12*
X56599000Y-33554500D03*
X55799000Y-33554500D03*
%TD*%
D11*
%TO.C,R1*%
X61520000Y-36000000D03*
X60500000Y-36000000D03*
%TD*%
M02*
