%TF.GenerationSoftware,KiCad,Pcbnew,8.0.4*%
%TF.CreationDate,2024-08-12T16:37:48-04:00*%
%TF.ProjectId,suzyq,73757a79-712e-46b6-9963-61645f706362,rev?*%
%TF.SameCoordinates,Original*%
%TF.FileFunction,Copper,L1,Top*%
%TF.FilePolarity,Positive*%
%FSLAX46Y46*%
G04 Gerber Fmt 4.6, Leading zero omitted, Abs format (unit mm)*
G04 Created by KiCad (PCBNEW 8.0.4) date 2024-08-12 16:37:48*
%MOMM*%
%LPD*%
G01*
G04 APERTURE LIST*
G04 Aperture macros list*
%AMRoundRect*
0 Rectangle with rounded corners*
0 $1 Rounding radius*
0 $2 $3 $4 $5 $6 $7 $8 $9 X,Y pos of 4 corners*
0 Add a 4 corners polygon primitive as box body*
4,1,4,$2,$3,$4,$5,$6,$7,$8,$9,$2,$3,0*
0 Add four circle primitives for the rounded corners*
1,1,$1+$1,$2,$3*
1,1,$1+$1,$4,$5*
1,1,$1+$1,$6,$7*
1,1,$1+$1,$8,$9*
0 Add four rect primitives between the rounded corners*
20,1,$1+$1,$2,$3,$4,$5,0*
20,1,$1+$1,$4,$5,$6,$7,0*
20,1,$1+$1,$6,$7,$8,$9,0*
20,1,$1+$1,$8,$9,$2,$3,0*%
G04 Aperture macros list end*
%TA.AperFunction,SMDPad,CuDef*%
%ADD10RoundRect,0.135000X0.135000X0.185000X-0.135000X0.185000X-0.135000X-0.185000X0.135000X-0.185000X0*%
%TD*%
%TA.AperFunction,SMDPad,CuDef*%
%ADD11R,0.500000X1.200000*%
%TD*%
%TA.AperFunction,SMDPad,CuDef*%
%ADD12R,0.250000X1.200000*%
%TD*%
%TA.AperFunction,ComponentPad*%
%ADD13O,0.800000X1.400000*%
%TD*%
%TA.AperFunction,ComponentPad*%
%ADD14O,0.800000X1.800000*%
%TD*%
%TA.AperFunction,ComponentPad*%
%ADD15R,1.700000X1.700000*%
%TD*%
%TA.AperFunction,ComponentPad*%
%ADD16O,1.700000X1.700000*%
%TD*%
%TA.AperFunction,ViaPad*%
%ADD17C,0.600000*%
%TD*%
%TA.AperFunction,Conductor*%
%ADD18C,0.200000*%
%TD*%
G04 APERTURE END LIST*
D10*
%TO.P,R2,2*%
%TO.N,VBUS*%
X56480000Y-36000000D03*
%TO.P,R2,1*%
%TO.N,/B5_CC2*%
X57500000Y-36000000D03*
%TD*%
D11*
%TO.P,U1,1,1*%
%TO.N,GND*%
X62199000Y-33554500D03*
%TO.P,U1,2,2*%
%TO.N,VBUS*%
X61399000Y-33554500D03*
D12*
%TO.P,U1,3,3*%
%TO.N,/B8_SBU2*%
X60749000Y-33554500D03*
%TO.P,U1,4,4*%
%TO.N,/A5_CC1*%
X60249000Y-33554500D03*
%TO.P,U1,5,5*%
%TO.N,/B7_DN2*%
X59749000Y-33554500D03*
%TO.P,U1,6,6*%
%TO.N,/A6_DP1*%
X59249000Y-33554500D03*
%TO.P,U1,7,7*%
%TO.N,/A7_DN1*%
X58749000Y-33554500D03*
%TO.P,U1,8,8*%
%TO.N,/B6_DP2*%
X58249000Y-33554500D03*
%TO.P,U1,9,9*%
%TO.N,/A8_SBU1*%
X57749000Y-33554500D03*
%TO.P,U1,10,10*%
%TO.N,/B5_CC2*%
X57249000Y-33554500D03*
D11*
%TO.P,U1,11,11*%
%TO.N,VBUS*%
X56599000Y-33554500D03*
%TO.P,U1,12,12*%
%TO.N,GND*%
X55799000Y-33554500D03*
D13*
%TO.P,U1,13,13*%
X54679000Y-33204500D03*
D14*
%TO.P,U1,14,14*%
X54679000Y-29204500D03*
%TO.P,U1,15,15*%
X63319000Y-29204500D03*
D13*
%TO.P,U1,16,16*%
X63319000Y-33204500D03*
%TD*%
D10*
%TO.P,R1,1*%
%TO.N,VBUS*%
X61520000Y-36000000D03*
%TO.P,R1,2*%
%TO.N,/A5_CC1*%
X60500000Y-36000000D03*
%TD*%
D15*
%TO.P,J1,1,Pin_1*%
%TO.N,VBUS*%
X55460000Y-41500000D03*
D16*
%TO.P,J1,2,Pin_2*%
%TO.N,/A8_SBU1*%
X58000000Y-41500000D03*
%TO.P,J1,3,Pin_3*%
%TO.N,/B8_SBU2*%
X60540000Y-41500000D03*
%TO.P,J1,4,Pin_4*%
%TO.N,GND*%
X63080000Y-41500000D03*
%TD*%
D17*
%TO.N,/A5_CC1*%
X59789750Y-32454498D03*
X60920000Y-35232027D03*
%TD*%
D18*
%TO.N,VBUS*%
X55460000Y-40080000D02*
X55460000Y-41500000D01*
X55380000Y-40000000D02*
X55460000Y-40080000D01*
%TO.N,/A8_SBU1*%
X58000000Y-40040000D02*
X58000000Y-41500000D01*
X58500000Y-39540000D02*
X58000000Y-40040000D01*
X58500000Y-39000000D02*
X58500000Y-39540000D01*
%TO.N,/B8_SBU2*%
X59000000Y-38540000D02*
X60540000Y-40080000D01*
X59000000Y-36303500D02*
X59000000Y-38540000D01*
X60749000Y-34554500D02*
X59000000Y-36303500D01*
X60749000Y-33554500D02*
X60749000Y-34554500D01*
X60540000Y-40080000D02*
X60540000Y-41500000D01*
%TO.N,GND*%
X63080000Y-39960000D02*
X63080000Y-41500000D01*
X63000000Y-39880000D02*
X63080000Y-39960000D01*
X63000000Y-39000000D02*
X63000000Y-39880000D01*
X63000000Y-39000000D02*
X63000000Y-34355500D01*
X63000000Y-40000000D02*
X63000000Y-39000000D01*
%TO.N,VBUS*%
X55380000Y-39000000D02*
X55380000Y-39880000D01*
X55380000Y-39000000D02*
X55380000Y-37100000D01*
X55380000Y-40000000D02*
X55380000Y-39000000D01*
%TO.N,/A8_SBU1*%
X58500000Y-39000000D02*
X58500000Y-39420000D01*
X58500000Y-35934314D02*
X58500000Y-39000000D01*
X57749000Y-35183314D02*
X58500000Y-35934314D01*
X57749000Y-33554500D02*
X57749000Y-35183314D01*
%TO.N,/A5_CC1*%
X60249000Y-32729500D02*
X60249000Y-33554500D01*
X59789750Y-32454498D02*
X59973998Y-32454498D01*
X59973998Y-32454498D02*
X60249000Y-32729500D01*
X60500000Y-35652027D02*
X60920000Y-35232027D01*
X60500000Y-36000000D02*
X60500000Y-35652027D01*
%TO.N,GND*%
X55029000Y-33554500D02*
X54679000Y-33204500D01*
X55799000Y-33554500D02*
X55029000Y-33554500D01*
X62969000Y-33554500D02*
X63319000Y-33204500D01*
X62199000Y-33554500D02*
X62969000Y-33554500D01*
X63000000Y-34355500D02*
X62199000Y-33554500D01*
%TO.N,VBUS*%
X55380000Y-37100000D02*
X56480000Y-36000000D01*
%TO.N,/B5_CC2*%
X57249000Y-35249000D02*
X57249000Y-33554500D01*
X57500000Y-35500000D02*
X57249000Y-35249000D01*
X57500000Y-36000000D02*
X57500000Y-35500000D01*
%TO.N,VBUS*%
X56480000Y-33673500D02*
X56599000Y-33554500D01*
X56480000Y-36000000D02*
X56480000Y-33673500D01*
X61520000Y-36000000D02*
X61520000Y-33675500D01*
X61520000Y-33675500D02*
X61399000Y-33554500D01*
%TD*%
M02*
